<svg width="3260" height="1690" viewBox="0 0 3260 1690" fill="none" xmlns="http://www.w3.org/2000/svg">
<g clip-path="url(#clip0_2212_2)">
<path d="M2958.04 960.12C2916.93 1040.32 2841 1101.88 2754.03 1125.55C2691.83 1142.49 2622.73 1139.71 2565.72 1110.02C2634.37 1078.1 2671.18 972.049 2676.69 867.817C2680.24 800.602 2731.17 658.661 2912.32 678.119C2912.32 678.119 2906.99 801.892 2791.96 976.79C2792.81 975.922 2846.6 919.882 2882.36 845.529C2910.44 780.193 2943.66 689.657 2924.79 562.093C2922.95 549.647 2934.43 539.36 2946.62 542.459C2950.36 543.399 2953.57 545.517 2955.9 548.357C2958.23 551.187 2959.69 554.76 2959.92 558.612C2964.25 634.514 2958.77 708.64 2958.77 708.64C2991.9 789.24 2990.35 897.107 2958.04 960.12Z" fill="url(#paint0_linear_2212_2)"/>
<path d="M2518.44 433.454C2459.61 466.174 2312.31 498.47 2232.51 334.676C2232.51 334.676 2340.17 273.419 2549.48 277.902C2548.3 277.644 2472.23 261.862 2390.25 271.086C2319.96 282.023 2225.62 302.008 2127.6 385.79C2118.04 393.96 2103.23 389.705 2099.37 377.735C2098.8 375.948 2098.52 374.12 2098.52 372.323C2098.52 366.694 2101.22 361.272 2105.98 357.884C2167.97 313.876 2233.68 279.121 2233.68 279.121C2284.34 208.208 2376.54 152.198 2447.09 146.074C2536.87 138.276 2629.37 169.87 2695.64 230.95C2743.06 274.649 2777.43 334.646 2782.59 398.721C2719.04 357.532 2609.66 382.722 2518.44 433.454Z" fill="url(#paint1_linear_2212_2)"/>
<path d="M2387.49 1137.8C2384.1 1142.47 2378.73 1145.1 2373.18 1145.1C2371.3 1145.1 2369.41 1144.8 2367.57 1144.18C2295.44 1120.12 2228.61 1087.6 2228.61 1087.6C2141.46 1088.56 2041.84 1047.2 1995.24 993.861C1935.95 925.995 1906.86 832.669 1917.05 743.124C1924.33 679.059 1952.48 615.902 2001.15 573.918C2005.41 649.53 2090.32 722.953 2185.11 766.632C2246.25 794.807 2359.26 894.649 2274.15 1055.75C2274.15 1055.75 2161.17 1005.01 2041.25 833.445C2042.22 835.614 2074.31 905.701 2129.71 965.966C2180.02 1016.23 2251.84 1080.59 2377.32 1110.26C2389.57 1113.15 2394.87 1127.62 2387.49 1137.8Z" fill="url(#paint2_linear_2212_2)"/>
<path d="M2100 1293.5C2092 1290.17 2083.17 1287.5 2073.5 1285.5C2064.17 1283.5 2051.83 1282.5 2036.5 1282.5C2019.5 1282.5 2006 1286.83 1996 1295.5C1986 1303.83 1981 1313.33 1981 1324C1981 1334.67 1985.67 1344.33 1995 1353C2004.33 1361.67 2022.5 1369.17 2049.5 1375.5C2073.5 1380.83 2092 1387.67 2105 1396C2118.33 1404.33 2127.67 1413.83 2133 1424.5C2138.33 1434.83 2141 1446.33 2141 1459C2141 1471.33 2137.83 1483.17 2131.5 1494.5C2125.5 1505.5 2115.5 1514.67 2101.5 1522C2087.83 1529 2069.5 1532.5 2046.5 1532.5C2013.83 1532.5 1983.67 1524.83 1956 1509.5C1951.67 1506.83 1949.5 1503.17 1949.5 1498.5C1949.5 1495.5 1950.67 1492.67 1953 1490C1955.33 1487.33 1958.33 1486 1962 1486C1964 1486 1966 1486.5 1968 1487.5C1991.67 1500.83 2017.83 1507.5 2046.5 1507.5C2069.17 1507.5 2086.33 1502.83 2098 1493.5C2110 1483.83 2116 1472.33 2116 1459C2116 1445 2110.33 1433.33 2099 1424C2088 1414.67 2069.83 1406.83 2044.5 1400.5C2020.83 1394.5 2002.5 1387.67 1989.5 1380C1976.83 1372.33 1968 1363.67 1963 1354C1958.33 1344.33 1956 1333.67 1956 1322C1956 1311.33 1959 1301.17 1965 1291.5C1971.33 1281.5 1980.5 1273.33 1992.5 1267C2004.5 1260.67 2019.17 1257.5 2036.5 1257.5C2054.83 1257.5 2069.5 1259 2080.5 1262C2091.83 1264.67 2103.67 1268.5 2116 1273.5C2121.33 1275.5 2124 1279.33 2124 1285C2124 1288.33 2122.67 1291.33 2120 1294C2117.67 1296.33 2114.83 1297.5 2111.5 1297.5C2110.83 1297.5 2109.83 1297.33 2108.5 1297C2107.17 1296.33 2104.33 1295.17 2100 1293.5ZM2373.75 1528C2370.42 1528 2367.42 1526.83 2364.75 1524.5C2362.42 1521.83 2361.25 1518.83 2361.25 1515.5V1415.5C2361.25 1394.83 2357.25 1380 2349.25 1371C2341.59 1361.67 2331.09 1357 2317.75 1357C2303.75 1357 2290.42 1360.83 2277.75 1368.5C2265.09 1375.83 2253.42 1384.83 2242.75 1395.5V1515.5C2242.75 1518.83 2241.59 1521.83 2239.25 1524.5C2236.92 1526.83 2233.92 1528 2230.25 1528C2226.92 1528 2223.92 1526.83 2221.25 1524.5C2218.92 1521.83 2217.75 1518.83 2217.75 1515.5V1260C2217.75 1256.33 2218.92 1253.33 2221.25 1251C2223.92 1248.67 2226.92 1247.5 2230.25 1247.5C2233.92 1247.5 2236.92 1248.67 2239.25 1251C2241.59 1253.33 2242.75 1256.33 2242.75 1260V1362.5C2254.09 1353.83 2265.92 1346.67 2278.25 1341C2290.59 1335 2303.75 1332 2317.75 1332C2330.42 1332 2341.92 1334.5 2352.25 1339.5C2362.59 1344.5 2370.75 1353.17 2376.75 1365.5C2383.09 1377.5 2386.25 1394.17 2386.25 1415.5V1515.5C2386.25 1518.83 2385.09 1521.83 2382.75 1524.5C2380.42 1526.83 2377.42 1528 2373.75 1528ZM2607.79 1523.5C2600.46 1515.83 2594.79 1506.17 2590.79 1494.5C2579.46 1505.17 2566.96 1513.5 2553.29 1519.5C2539.96 1525.17 2525.46 1528 2509.79 1528C2494.46 1528 2482.29 1525.17 2473.29 1519.5C2464.29 1513.83 2457.96 1506.83 2454.29 1498.5C2450.62 1490.17 2448.79 1482.33 2448.79 1475C2448.79 1467 2450.12 1459.33 2452.79 1452C2455.79 1444.33 2460.29 1437.67 2466.29 1432C2474.62 1424.33 2485.79 1417.83 2499.79 1412.5C2513.79 1407.17 2530.96 1404.5 2551.29 1404.5C2561.96 1404.5 2573.29 1405 2585.29 1406C2583.96 1391 2578.96 1379.17 2570.29 1370.5C2561.62 1361.5 2548.62 1357 2531.29 1357C2524.62 1357 2517.79 1357.67 2510.79 1359C2503.79 1360 2498.46 1361.17 2494.79 1362.5C2490.46 1364.17 2487.29 1365 2485.29 1365C2481.96 1365 2478.96 1363.83 2476.29 1361.5C2473.62 1358.83 2472.29 1356 2472.29 1353C2472.29 1346.67 2475.12 1342.5 2480.79 1340.5C2486.46 1338.83 2493.96 1337 2503.29 1335C2512.96 1333 2522.29 1332 2531.29 1332C2558.62 1332 2578.62 1339.5 2591.29 1354.5C2604.29 1369.5 2610.79 1389 2610.79 1413V1458.5C2610.79 1469.83 2611.96 1479.33 2614.29 1487C2616.96 1494.33 2620.79 1500.83 2625.79 1506.5C2628.12 1508.83 2629.29 1511.67 2629.29 1515C2629.29 1518.33 2627.96 1521.33 2625.29 1524C2622.96 1526.33 2620.12 1527.5 2616.79 1527.5C2613.46 1527.5 2610.46 1526.17 2607.79 1523.5ZM2509.79 1503C2524.12 1503 2537.79 1499.83 2550.79 1493.5C2563.79 1486.83 2575.46 1476.83 2585.79 1463.5V1431C2573.46 1430 2561.96 1429.5 2551.29 1429.5C2519.62 1429.5 2497.29 1436 2484.29 1449C2480.29 1453 2477.46 1457.17 2475.79 1461.5C2474.46 1465.83 2473.79 1470.33 2473.79 1475C2473.79 1481.67 2476.62 1488 2482.29 1494C2488.29 1500 2497.46 1503 2509.79 1503ZM2703.89 1528C2700.55 1528 2697.55 1526.83 2694.89 1524.5C2692.55 1521.83 2691.39 1518.83 2691.39 1515.5V1344.5C2691.39 1340.83 2692.55 1337.83 2694.89 1335.5C2697.55 1333.17 2700.55 1332 2703.89 1332C2707.55 1332 2710.55 1333.17 2712.89 1335.5C2715.22 1337.83 2716.39 1340.83 2716.39 1344.5V1374C2729.39 1360.33 2743.22 1350 2757.89 1343C2772.55 1336 2786.72 1332.5 2800.39 1332.5C2804.05 1332.5 2806.89 1333.67 2808.89 1336C2811.22 1338 2812.39 1340.67 2812.39 1344C2812.39 1351.67 2808.72 1356 2801.39 1357C2782.05 1359.33 2765.72 1365.5 2752.39 1375.5C2739.05 1385.5 2727.05 1398.5 2716.39 1414.5V1515.5C2716.39 1518.83 2715.22 1521.83 2712.89 1524.5C2710.55 1526.83 2707.55 1528 2703.89 1528ZM2945.41 1528C2913.41 1528 2887.58 1519.67 2867.91 1503C2848.58 1486.33 2838.91 1462.83 2838.91 1432.5C2838.91 1412.17 2843.25 1394.5 2851.91 1379.5C2860.58 1364.5 2872.08 1352.83 2886.41 1344.5C2901.08 1336.17 2917.25 1332 2934.91 1332C2952.58 1332 2967.41 1335.5 2979.41 1342.5C2991.41 1349.5 3000.41 1358.17 3006.41 1368.5C3012.75 1378.83 3015.91 1389 3015.91 1399C3015.91 1411 3012.08 1421.33 3004.41 1430C2997.08 1438.67 2983.08 1443 2962.41 1443H2864.41C2867.08 1463 2875.75 1478 2890.41 1488C2905.41 1498 2923.75 1503 2945.41 1503C2953.75 1503 2961.25 1502.33 2967.91 1501C2974.91 1499.67 2980.25 1498.33 2983.91 1497C2987.58 1495.67 2989.91 1494.83 2990.91 1494.5C2992.25 1494.17 2993.25 1494 2993.91 1494C2997.25 1494 3000.08 1495.33 3002.41 1498C3005.08 1500.33 3006.41 1503.17 3006.41 1506.5C3006.41 1512.17 3003.75 1516 2998.41 1518C2991.41 1520.67 2983.25 1523 2973.91 1525C2964.58 1527 2955.08 1528 2945.41 1528ZM2934.91 1357C2917.25 1357 2901.91 1362.67 2888.91 1374C2875.91 1385 2867.91 1399.67 2864.91 1418H2962.91C2981.91 1418 2991.41 1411.67 2991.41 1399C2991.41 1388.67 2986.25 1379.17 2975.91 1370.5C2965.58 1361.5 2951.91 1357 2934.91 1357Z" fill="white"/>
<path d="M588 1090C460 1090 356.667 1056.67 278 990C200.667 923.333 162 829.333 162 708C162 626.667 179.333 556 214 496C248.667 436 294.667 389.333 352 356C410.667 322.667 475.333 306 546 306C616.667 306 676 320 724 348C772 376 808 410.667 832 452C857.333 493.333 870 534 870 574C870 622 854.667 663.333 824 698C794.667 732.667 738.667 750 656 750H264C274.667 830 309.333 890 368 930C428 970 501.333 990 588 990C621.333 990 651.333 987.333 678 982C706 976.667 727.333 971.333 742 966C756.667 960.667 766 957.333 770 956C775.333 954.667 779.333 954 782 954C795.333 954 806.667 959.333 816 970C826.667 979.333 832 990.667 832 1004C832 1026.67 821.333 1042 800 1050C772 1060.67 739.333 1070 702 1078C664.667 1086 626.667 1090 588 1090ZM546 406C475.333 406 414 428.667 362 474C310 518 278 576.667 266 650H658C734 650 772 624.667 772 574C772 532.667 751.333 494.667 710 460C668.667 424 614 406 546 406ZM1653.69 428C1605.69 413.333 1559.02 406 1513.69 406C1412.35 406 1333.02 435.333 1275.69 494C1219.69 551.333 1191.69 625.333 1191.69 716C1191.69 794.667 1219.69 860 1275.69 912C1331.69 964 1410.35 990 1511.69 990C1549.02 990 1581.69 987.333 1609.69 982C1637.69 975.333 1659.69 969.333 1675.69 964C1690.35 958.667 1699.69 955.333 1703.69 954C1709.02 952.667 1713.02 952 1715.69 952C1729.02 952 1740.35 957.333 1749.69 968C1760.35 977.333 1765.69 988.667 1765.69 1002C1765.69 1024.67 1755.02 1040 1733.69 1048C1704.35 1060 1671.02 1070 1633.69 1078C1597.69 1086 1557.02 1090 1511.69 1090C1421.02 1090 1344.35 1073.33 1281.69 1040C1219.02 1005.33 1171.69 960 1139.69 904C1107.69 846.667 1091.69 784 1091.69 716C1091.69 637.333 1108.35 567.333 1141.69 506C1175.02 443.333 1223.02 394.667 1285.69 360C1348.35 324 1424.35 306 1513.69 306C1581.69 306 1646.35 316.667 1707.69 338C1730.35 346 1741.69 362.667 1741.69 388C1741.69 400 1736.35 411.333 1725.69 422C1715.02 431.333 1703.02 436 1689.69 436C1685.69 436 1673.69 433.333 1653.69 428Z" fill="white"/>
</g>
<defs>
<linearGradient id="paint0_linear_2212_2" x1="2706.3" y1="1076.87" x2="3000.2" y2="584.814" gradientUnits="userSpaceOnUse">
<stop stop-color="#92C15F"/>
<stop offset="1" stop-color="#56C479"/>
</linearGradient>
<linearGradient id="paint1_linear_2212_2" x1="2630.42" y1="268.729" x2="2053.76" y2="384.507" gradientUnits="userSpaceOnUse">
<stop stop-color="#92C15F"/>
<stop offset="1" stop-color="#56C479"/>
</linearGradient>
<linearGradient id="paint2_linear_2212_2" x1="1927.06" y1="668.96" x2="2352.32" y2="1178.83" gradientUnits="userSpaceOnUse">
<stop stop-color="#92C15F"/>
<stop offset="1" stop-color="#56C479"/>
</linearGradient>
<clipPath id="clip0_2212_2">
<rect width="3260" height="1690" fill="white"/>
</clipPath>
</defs>
</svg>
