<?xml version="1.0" encoding="utf-8"?>
<!-- Generator: Adobe Illustrator 27.5.0, SVG Export Plug-In . SVG Version: 6.00 Build 0)  -->
<svg version="1.1" xmlns="http://www.w3.org/2000/svg" xmlns:xlink="http://www.w3.org/1999/xlink" x="0px" y="0px"
	 viewBox="0 0 2200 2200" style="enable-background:new 0 0 2200 2200;" xml:space="preserve">
<g id="Objects">
	<g>
		<linearGradient id="SVGID_1_" gradientUnits="userSpaceOnUse" x1="1509.5974" y1="1787.4862" x2="1977.4497" y2="1004.188">
			<stop  offset="0" style="stop-color:#92C15F"/>
			<stop  offset="1" style="stop-color:#56C479"/>
		</linearGradient>
		<path style="fill:url(#SVGID_1_);" d="M1910.333,1601.635c-65.437,127.667-186.314,225.674-324.75,263.342
			c-99.026,26.98-209.019,22.541-299.776-24.711c109.286-50.82,167.883-219.641,176.646-385.567
			c5.656-107,86.728-332.954,375.11-301.979c0,0-8.484,197.033-191.608,475.452c1.348-1.381,86.975-90.592,143.911-208.953
			c44.704-104.008,97.579-248.133,67.541-451.201c-2.926-19.812,15.34-36.188,34.757-31.255c5.952,1.496,11.065,4.867,14.764,9.388
			c3.716,4.505,6.034,10.194,6.396,16.326c6.906,120.828-1.825,238.828-1.825,238.828
			C1964.245,1329.612,1961.779,1501.326,1910.333,1601.635z"/>
	</g>
	<g>
		
			<linearGradient id="SVGID_00000016044541524429671450000011770328679160978592_" gradientUnits="userSpaceOnUse" x1="1388.7955" y1="501.0151" x2="470.8125" y2="685.3206">
			<stop  offset="0" style="stop-color:#92C15F"/>
			<stop  offset="1" style="stop-color:#56C479"/>
		</linearGradient>
		<path style="fill:url(#SVGID_00000016044541524429671450000011770328679160978592_);" d="M1210.539,763.24
			c-93.65,52.086-328.137,103.499-455.163-157.245c0,0,171.385-97.514,504.57-90.378c-1.874-0.411-122.965-25.534-253.477-10.851
			c-111.884,17.411-262.059,49.225-418.104,182.598c-15.225,13.005-38.802,6.231-44.934-12.824
			c-0.921-2.844-1.365-5.754-1.365-8.615c0-8.961,4.308-17.592,11.887-22.985c98.681-70.057,203.281-125.382,203.281-125.382
			c80.645-112.887,227.417-202.048,339.728-211.798c142.925-12.413,290.174,37.881,395.662,135.115
			c75.482,69.564,130.199,165.072,138.42,267.074C1529.88,642.379,1355.749,682.48,1210.539,763.24z"/>
	</g>
	<g>
		
			<linearGradient id="SVGID_00000023988481718101009940000001306364582225268890_" gradientUnits="userSpaceOnUse" x1="269.1257" y1="1138.1405" x2="946.0939" y2="1949.7933">
			<stop  offset="0" style="stop-color:#92C15F"/>
			<stop  offset="1" style="stop-color:#56C479"/>
		</linearGradient>
		<path style="fill:url(#SVGID_00000023988481718101009940000001306364582225268890_);" d="M1002.079,1884.493
			c-5.393,7.432-13.942,11.608-22.771,11.608c-2.992,0-6.001-0.477-8.944-1.463c-114.81-38.292-221.202-90.066-221.202-90.066
			c-138.732,1.529-297.326-64.319-371.493-149.222c-94.39-108.036-140.705-256.601-124.478-399.147
			c11.591-101.986,56.394-202.525,133.882-269.359c6.774,120.367,141.938,237.249,292.837,306.78
			c97.333,44.852,277.235,203.791,141.741,460.244c0,0-179.852-80.776-370.753-353.884c1.546,3.453,52.629,115.024,140.82,210.959
			c80.086,80.02,194.419,182.467,394.182,229.703C1005.4,1845.247,1013.834,1868.281,1002.079,1884.493z"/>
	</g>
</g>
</svg>
